<svg width="273" height="49" viewBox="0 0 273 49" fill="none" xmlns="http://www.w3.org/2000/svg">
<path d="M32.293 -0.000183642C32.3485 0.00920398 32.404 0.0258457 32.4594 0.0266991C33.277 0.0352333 34.0942 0.0463277 34.9117 0.0638229C36.0276 0.0877186 37.1426 0.128256 38.2572 0.168367C39.286 0.205491 40.3143 0.26523 41.3414 0.339051C42.7786 0.442315 44.2145 0.555393 45.6482 0.704741C47.3806 0.88524 49.1011 1.12548 50.7883 1.5667C52.4888 2.01175 54.0902 2.67102 55.4766 3.78175C56.8395 4.8737 57.7766 6.26648 58.3795 7.89438C58.8416 9.14208 59.0853 10.4346 59.1945 11.7587C59.3051 13.0973 59.3652 14.4371 59.4087 15.7791C59.4574 17.2786 59.5129 18.778 59.4796 20.2775C59.4489 21.6763 59.3853 23.0742 59.2837 24.4704C59.2154 25.4121 59.1408 26.3534 59.0537 27.293C58.9586 28.3176 58.8344 29.3391 58.7307 30.3632C58.5937 31.7202 58.3919 33.0677 58.161 34.4106C57.7949 36.5411 57.3354 38.6427 56.5255 40.664C55.3576 43.5776 53.2616 45.4606 50.3348 46.4852C48.8669 46.9989 47.3525 47.3117 45.8206 47.5473C44.4167 47.7632 43.003 47.8882 41.5855 47.9816C40.5861 48.0474 39.5872 48.1062 38.5866 48.1506C37.2092 48.2121 35.8317 48.2522 34.4535 48.2846C33.7212 48.3017 32.989 48.3013 32.2572 48.3187C30.9634 48.3495 29.6696 48.3623 28.3754 48.3418C26.9254 48.3192 25.4755 48.2991 24.0259 48.2616C22.9037 48.233 21.7819 48.1899 20.6609 48.134C19.5335 48.0777 18.4062 48.0119 17.2805 47.9245C15.0279 47.7495 12.7838 47.5084 10.5957 46.9076C9.10134 46.4971 7.65949 45.965 6.37552 45.0681C4.69428 43.8942 3.6147 42.2812 2.8765 40.3943C2.20955 38.69 1.80247 36.923 1.47177 35.133C1.22001 33.7718 1.01433 32.4029 0.846637 31.0289C0.739959 30.1554 0.662725 29.2785 0.573969 28.4029C0.491614 27.5909 0.407126 26.7793 0.332878 25.9664C0.279539 25.3797 0.236442 24.7917 0.198038 24.2041C0.0525297 21.9767 -0.00592955 19.7458 0.0004711 17.5141C0.00388478 16.3279 -0.00208916 15.1395 0.0687447 13.9541C0.168168 12.2814 0.260337 10.6074 0.702836 8.97779C1.15984 7.2957 1.91597 5.77662 3.14191 4.51782C4.15535 3.47665 5.37019 2.74057 6.71134 2.19993C8.19714 1.60083 9.75122 1.26885 11.3249 1.01539C12.6499 0.802031 13.9855 0.669751 15.3215 0.553259C16.3823 0.460663 17.4439 0.380015 18.5082 0.322409C20.026 0.240481 21.5429 0.148738 23.0629 0.106494C24.3276 0.0715036 25.592 0.0275525 26.8572 0.0271258C26.9485 0.0271258 27.0424 0.0424874 27.1298 -0.000610352C28.8508 -0.000183642 30.5721 -0.000183642 32.293 -0.000183642ZM29.7067 46.2407C29.7067 46.2402 29.7067 46.2398 29.7067 46.239C30.8661 46.239 32.0259 46.2641 33.184 46.233C34.7607 46.1907 36.3387 46.1677 37.9137 46.0755C38.7786 46.0248 39.6452 46.0009 40.5089 45.9347C41.8603 45.831 43.2117 45.7222 44.5541 45.5234C45.827 45.3352 47.0909 45.1129 48.316 44.7028C50.6522 43.9211 52.3932 42.4673 53.4382 40.213C53.9908 39.0212 54.3825 37.7765 54.6812 36.5006C55.2112 34.236 55.5069 31.9348 55.7557 29.6254C55.9191 28.1081 56.0544 26.5881 56.1657 25.0665C56.2528 23.8768 56.3189 22.6837 56.336 21.4911C56.3595 19.8636 56.3689 18.2353 56.3198 16.6069C56.2741 15.087 56.2067 13.5696 56.0493 12.0569C55.9268 10.8805 55.7181 9.72326 55.3034 8.6104C54.6872 6.95732 53.6639 5.63324 52.1547 4.69789C50.7337 3.81759 49.1617 3.36955 47.5347 3.08621C45.7852 2.78154 44.0216 2.59165 42.2533 2.43334C40.8951 2.31216 39.5343 2.23706 38.1744 2.15171C37.2459 2.09368 36.3156 2.05314 35.3858 2.02413C34.1283 1.98487 32.8704 1.95329 31.6129 1.93879C30.8025 1.9294 29.9922 1.93324 29.1815 1.95372C27.8454 1.98743 26.5081 1.9678 25.1721 2.01474C24.483 2.03906 23.7934 2.04248 23.1043 2.06552C22.4582 2.08728 21.8122 2.11544 21.167 2.15428C20.1041 2.21743 19.0411 2.28613 17.979 2.36294C17.2925 2.41243 16.6063 2.47132 15.9214 2.54386C14.9264 2.64926 13.9326 2.76404 12.943 2.91211C11.6565 3.10456 10.3798 3.33327 9.14572 3.76425C6.32175 4.75081 4.52573 6.67228 3.79734 9.585C3.4214 11.0887 3.30747 12.6245 3.20933 14.1619C3.14362 15.1898 3.0954 16.2199 3.0843 17.2496C3.06382 19.1476 3.05955 21.0452 3.14788 22.9427C3.20165 24.0991 3.27888 25.2534 3.36764 26.4076C3.46237 27.6391 3.57502 28.8685 3.70858 30.0965C3.88311 31.6988 4.09603 33.2956 4.39985 34.8787C4.73567 36.6265 5.16409 38.347 5.89334 39.9804C6.64221 41.6578 7.74355 43.0216 9.36633 43.9288C10.5202 44.5739 11.7657 44.958 13.054 45.217C15.0066 45.6096 16.9857 45.7926 18.9682 45.9386C19.9739 46.0124 20.9809 46.0691 21.9884 46.108C23.4443 46.1643 24.9007 46.21 26.3571 46.2364C27.4733 46.2569 28.5905 46.2407 29.7067 46.2407Z" fill="#5F5F5F"/>
<path d="M74.3664 13.5161C74.5332 13.508 74.7001 13.493 74.8669 13.493C80.5306 13.4917 86.1939 13.4917 91.8577 13.4922C92.4572 13.4922 92.458 13.493 92.4585 14.0819C92.4593 14.7898 92.4504 15.4977 92.4623 16.2056C92.467 16.4902 92.3765 16.6157 92.0736 16.6447C91.2428 16.7245 90.4175 16.8585 89.5863 16.934C88.5076 17.0322 87.958 17.5685 87.9196 18.7194C87.882 19.8378 87.9144 20.9587 87.9059 22.0784C87.9038 22.3554 88.0557 22.3912 88.2754 22.3899C88.9833 22.3857 89.6913 22.3886 90.3992 22.3886C93.9904 22.3886 97.5815 22.3891 101.173 22.3882C101.687 22.3882 101.689 22.3861 101.689 21.8779C101.689 20.8354 101.696 19.7925 101.685 18.7501C101.674 17.601 101.128 17.0428 99.9784 16.9314C99.1092 16.8474 98.2438 16.7228 97.3754 16.6272C97.16 16.6033 97.084 16.4864 97.0836 16.2965C97.081 15.4597 97.0823 14.6234 97.0831 13.7866C97.0836 13.5801 97.1864 13.4802 97.3964 13.4917C97.486 13.4969 97.5764 13.4909 97.6665 13.4909C103.304 13.4909 108.942 13.4909 114.58 13.4909C115.17 13.4909 115.17 13.4917 115.171 14.0879C115.171 14.783 115.162 15.4781 115.174 16.1732C115.179 16.4612 115.116 16.6123 114.781 16.646C113.823 16.742 112.867 16.8598 111.916 17.0083C111.227 17.1158 110.822 17.5485 110.706 18.2372C110.653 18.5529 110.614 18.8713 110.615 19.196C110.62 22.9033 110.62 26.6101 110.615 30.3173C110.614 30.6421 110.652 30.9608 110.708 31.2757C110.849 32.0728 111.393 32.4867 112.302 32.5734C113.158 32.6549 114.01 32.7812 114.865 32.8742C115.098 32.8994 115.172 33.0107 115.171 33.2258C115.167 34.0498 115.166 34.8733 115.171 35.6973C115.172 35.9281 115.068 36.0271 114.843 36.0161C114.753 36.0118 114.663 36.0169 114.573 36.0169C108.935 36.0169 103.297 36.0169 97.6592 36.0169C97.0802 36.0169 97.0789 36.0161 97.0776 35.4443C97.0763 34.7492 97.0827 34.054 97.0755 33.3589C97.0721 33.0619 97.1382 32.8955 97.4936 32.8622C98.4136 32.776 99.3332 32.6647 100.245 32.517C101.099 32.3788 101.575 31.8454 101.598 30.989C101.629 29.8057 101.607 28.6207 101.614 27.4366C101.615 27.2024 101.513 27.1127 101.288 27.1191C101.031 27.1264 100.773 27.1196 100.516 27.1196C96.4994 27.1196 92.4836 27.1196 88.4675 27.1196C87.9076 27.1196 87.9072 27.1204 87.9068 27.6611C87.9063 28.6263 87.9106 29.5919 87.9042 30.5572C87.9025 30.8435 87.9464 31.123 88.0117 31.3969C88.1824 32.1112 88.6992 32.4837 89.5466 32.5708C90.4026 32.6583 91.2543 32.7824 92.1103 32.8695C92.3787 32.8968 92.4606 33.0159 92.4585 33.2646C92.4516 34.0498 92.4474 34.8349 92.4602 35.6201C92.4653 35.9239 92.3445 36.0254 92.0484 36.0207C91.2376 36.0079 90.4265 36.0169 89.6157 36.0169C84.7243 36.0169 79.833 36.0173 74.942 36.0161C74.7496 36.0161 74.5567 36.0011 74.3643 35.993C74.3643 34.9629 74.3643 33.9333 74.3643 32.9032C75.434 32.7735 76.5051 32.6544 77.5727 32.5098C78.3007 32.4108 78.6971 31.9568 78.8362 31.2463C78.8861 30.9911 78.8993 30.7377 78.8993 30.4803C78.8993 27.7165 78.8998 24.9527 78.8993 22.1894C78.8993 21.0326 78.9109 19.8753 78.8929 18.7189C78.8763 17.6445 78.3668 17.0718 77.347 16.9477C76.3536 16.8269 75.3585 16.7189 74.3643 16.6054C74.3664 15.5758 74.3664 14.5457 74.3664 13.5161Z" fill="#5F5F5F"/>
<path d="M131.757 36.6881C131.068 36.6186 130.378 36.5601 129.691 36.4773C126.705 36.1172 123.811 35.4421 121.209 33.8539C118.262 32.0553 116.462 29.4673 116.085 26.0084C115.712 22.5858 116.621 19.5532 119.148 17.1162C120.688 15.6308 122.554 14.6874 124.572 14.0328C126.549 13.391 128.583 13.0527 130.652 12.8594C132.49 12.6878 134.329 12.6729 136.165 12.7373C139.497 12.8542 142.777 13.3066 145.864 14.6665C148.359 15.7653 150.42 17.3727 151.663 19.8659C152.567 21.6799 152.897 23.6078 152.731 25.6312C152.354 30.2017 149.749 33.0718 145.713 34.8362C143.575 35.7711 141.312 36.2426 138.999 36.485C138.336 36.5546 137.672 36.6207 137.009 36.6886C135.258 36.6881 133.507 36.6881 131.757 36.6881ZM142.316 24.698C142.344 24.0221 142.272 23.2809 142.158 22.5435C141.756 19.9445 140.395 18.154 137.778 17.4981C135.6 16.9524 133.4 16.9511 131.211 17.455C128.705 18.0319 127.212 19.6185 126.705 22.1232C126.342 23.9197 126.351 25.7238 126.733 27.5198C127.239 29.9 128.659 31.4319 131.029 32.0144C133.288 32.5695 135.567 32.5708 137.821 31.9969C140.085 31.4208 141.481 29.9581 142.012 27.6756C142.235 26.7189 142.333 25.7507 142.316 24.698Z" fill="#5F5F5F"/>
<path d="M272.104 35.9157C271.95 35.9238 271.796 35.9396 271.642 35.9396C265.554 35.9409 259.466 35.9409 253.377 35.9404C252.771 35.9404 252.77 35.9396 252.77 35.323C252.77 34.6151 252.778 33.9072 252.767 33.1992C252.763 32.9236 252.864 32.8207 253.143 32.793C253.974 32.7111 254.802 32.5976 255.63 32.4964C255.85 32.4696 256.059 32.4073 256.255 32.3087C256.818 32.0262 256.994 31.5688 256.725 30.997C256.434 30.377 255.998 29.8449 255.626 29.2739C255.496 29.0742 255.281 29.134 255.095 29.1335C251.955 29.1306 248.813 29.1314 245.673 29.1314C244.502 29.1314 243.33 29.1382 242.159 29.1267C241.885 29.1242 241.703 29.2031 241.562 29.448C241.26 29.9716 240.926 30.4768 240.618 30.9974C240.252 31.6157 240.429 32.1453 241.087 32.4495C241.631 32.7004 242.226 32.6193 242.793 32.7179C243.058 32.764 243.329 32.7704 243.598 32.796C244.165 32.8502 244.165 32.8506 244.166 33.4326C244.166 34.0889 244.167 34.7456 244.165 35.4019C244.164 35.9379 244.163 35.94 243.634 35.94C240.185 35.9409 236.735 35.9404 233.285 35.9404C232.255 35.9404 231.225 35.9298 230.196 35.9464C229.86 35.9519 229.74 35.8423 229.749 35.503C229.768 34.7439 229.763 33.9844 229.751 33.2248C229.746 32.9377 229.84 32.8195 230.142 32.7909C230.999 32.7098 231.852 32.5942 232.706 32.4883C233.443 32.397 233.942 31.969 234.319 31.3571C235.656 29.1882 236.998 27.0218 238.338 24.8549C239.536 22.9177 240.736 20.9813 241.932 19.0431C242.094 18.7816 242.265 18.5251 242.275 18.1961C242.296 17.5629 241.884 17.0837 241.252 17.0175C240.038 16.8908 238.825 16.7508 237.611 16.6378C237.325 16.6113 237.237 16.4991 237.241 16.2286C237.251 15.4694 237.259 14.7095 237.238 13.9504C237.228 13.5979 237.346 13.4831 237.701 13.4848C240.121 13.4972 242.54 13.4912 244.96 13.4912C247.998 13.4912 251.036 13.5134 254.074 13.4793C255.166 13.4669 255.938 13.8957 256.522 14.791C259.102 18.747 261.694 22.6958 264.281 26.6471C265.296 28.1978 266.314 29.7459 267.322 31.3017C267.854 32.1235 268.604 32.5174 269.574 32.5775C270.419 32.63 271.261 32.7405 272.105 32.8254C272.104 33.8559 272.104 34.886 272.104 35.9157ZM248.517 25.0764C249.816 25.0764 251.115 25.0772 252.415 25.0743C252.511 25.0738 252.642 25.1238 252.697 25.0154C252.751 24.9108 252.643 24.8276 252.589 24.7457C251.249 22.7022 249.905 20.6616 248.568 18.6156C248.414 18.3792 248.335 18.3292 248.164 18.6113C246.92 20.6552 245.662 22.6902 244.411 24.7286C244.214 25.0495 244.228 25.0751 244.619 25.0755C245.918 25.0777 247.217 25.0764 248.517 25.0764Z" fill="#5F5F5F"/>
<path d="M183.251 29.9926C183.251 26.9489 183.258 24.0144 183.247 21.0803C183.243 20.1941 183.324 19.3044 183.19 18.4211C183.043 17.4512 182.582 17.0364 181.613 16.9374C180.757 16.8499 179.905 16.7253 179.048 16.6387C178.78 16.6114 178.69 16.4992 178.705 16.2457C178.758 15.3991 178.806 14.5521 178.85 13.7047C178.859 13.5169 178.935 13.4162 179.129 13.4192C179.232 13.4205 179.336 13.4162 179.438 13.4162C183.854 13.4162 188.269 13.4158 192.684 13.4162C193.26 13.4162 193.261 13.4175 193.262 13.9888C193.263 14.7096 193.254 15.4307 193.265 16.1514C193.269 16.4194 193.183 16.538 192.898 16.567C192.119 16.646 191.345 16.777 190.565 16.8521C189.238 16.9797 188.747 17.4887 188.711 18.8273C188.707 18.969 188.71 19.1107 188.71 19.2519C188.71 24.6195 188.71 29.9871 188.71 35.3546C188.71 35.9392 188.709 35.9405 188.113 35.9405C184.612 35.9405 181.111 35.9277 177.61 35.9473C176.586 35.9533 175.836 35.5782 175.211 34.7504C171.468 29.7874 167.696 24.8469 163.933 19.8992C163.85 19.7904 163.76 19.6871 163.664 19.5698C163.574 19.7123 163.613 19.8433 163.613 19.9658C163.61 23.3381 163.609 26.7108 163.614 30.0831C163.615 30.4552 163.642 30.8294 163.688 31.1989C163.791 32.0139 164.347 32.4778 165.256 32.5708C166.112 32.6583 166.964 32.7833 167.82 32.8695C168.092 32.8968 168.165 33.0193 168.163 33.2663C168.155 34.0387 168.146 34.8114 168.166 35.5829C168.175 35.9273 168.047 36.0237 167.716 36.022C165.515 36.0114 163.314 36.0165 161.113 36.0165C158.796 36.0165 156.479 36.0101 154.162 36.0229C153.802 36.025 153.655 35.9256 153.668 35.5454C153.692 34.7995 153.682 34.0523 153.671 33.306C153.667 33.0252 153.749 32.8938 154.056 32.8648C154.887 32.7863 155.713 32.6557 156.543 32.5742C157.682 32.4624 158.214 31.8757 158.222 30.6365C158.233 28.9118 158.225 27.187 158.225 25.4618C158.225 23.3509 158.225 21.2399 158.225 19.1286C158.225 18.9997 158.229 18.8708 158.222 18.7424C158.152 17.5451 157.637 17.0356 156.455 16.9285C155.623 16.8534 154.797 16.7253 153.967 16.6306C153.757 16.6067 153.675 16.5052 153.676 16.305C153.678 15.4683 153.678 14.6319 153.677 13.7951C153.676 13.5873 153.771 13.4862 153.982 13.4926C154.085 13.496 154.188 13.4913 154.291 13.4913C159.182 13.4913 164.073 13.4913 168.965 13.4913C169.171 13.4913 169.377 13.4887 169.583 13.4964C170.371 13.5246 170.998 13.8139 171.494 14.4727C175.295 19.5207 179.116 24.5542 182.931 29.5919C183.014 29.7029 183.103 29.8087 183.251 29.9926Z" fill="#5F5F5F"/>
<path d="M207.41 35.9405C202.732 35.9405 198.871 35.9409 195.008 35.9401C194.456 35.9401 194.455 35.9384 194.454 35.3858C194.453 34.6651 194.463 33.9439 194.45 33.2232C194.445 32.9348 194.541 32.8221 194.842 32.7905C195.8 32.6903 196.758 32.5763 197.708 32.4244C198.404 32.3135 198.808 31.8804 198.918 31.1955C198.973 30.8541 199.003 30.5047 199.004 30.1586C199.01 26.4509 199.006 22.7437 199.011 19.036C199.011 18.7117 198.977 18.3921 198.922 18.0767C198.827 17.5335 198.501 17.1789 197.97 17.0193C197.262 16.8064 196.523 16.812 195.799 16.7113C194.523 16.5342 194.791 16.7987 194.763 15.5963C194.749 15.0172 194.768 14.4377 194.758 13.8583C194.753 13.5988 194.842 13.4674 195.113 13.4917C195.177 13.4977 195.242 13.4917 195.306 13.4917C202.721 13.4922 210.137 13.4768 217.552 13.5024C220.207 13.5118 222.807 13.9193 225.269 14.975C227.853 16.0831 229.862 17.8041 230.908 20.4868C231.583 22.2197 231.761 24.0199 231.593 25.8693C231.446 27.4853 231.012 29.0014 230.161 30.3869C229.112 32.0959 227.619 33.3111 225.835 34.1774C223.675 35.2254 221.371 35.7361 218.987 35.8569C214.858 36.0655 210.725 35.8722 207.41 35.9405ZM207.784 24.7526C207.784 26.8499 207.784 28.9472 207.784 31.0449C207.784 31.5877 207.785 31.5898 208.307 31.5898C210.598 31.5906 212.888 31.5941 215.179 31.5868C215.718 31.5851 216.256 31.5783 216.795 31.5044C219.042 31.1981 220.364 30.0532 220.879 27.845C221.328 25.9175 221.298 23.9675 220.971 22.0238C220.788 20.937 220.387 19.9432 219.556 19.173C218.617 18.302 217.451 17.976 216.224 17.9526C213.574 17.9026 210.923 17.9325 208.272 17.9099C207.873 17.9065 207.773 18.0396 207.776 18.4215C207.793 20.532 207.784 22.6425 207.784 24.7526Z" fill="#5F5F5F"/>
<path d="M15.5451 4.08653C16.1207 4.08738 16.017 4.01313 16.1301 4.53415C17.3697 10.2461 18.6481 15.9491 20.1036 21.6107C20.4894 23.1114 20.9156 24.5998 21.551 26.0198C22.515 28.1764 24.1493 29.4532 26.4889 29.8176C27.1563 29.9217 27.8271 29.9682 28.5021 29.9976C29.4695 30.0399 30.4364 30.0232 31.4008 29.9759C32.5243 29.9204 33.635 29.7642 34.677 29.2931C35.9013 28.7393 36.8153 27.856 37.46 26.6872C38.1133 25.5027 38.5341 24.226 38.8899 22.93C39.9055 19.2313 40.8276 15.5091 41.6644 11.7656C42.2157 9.29879 42.7538 6.82899 43.2902 4.35877C43.3367 4.14499 43.4216 4.07074 43.6443 4.08013C44.872 4.13005 46.0992 4.17955 47.3192 4.33743C47.4587 4.35535 47.5018 4.41851 47.4937 4.54652C47.4455 5.28345 47.3994 6.02038 47.3508 6.7573C47.3162 7.2813 47.2765 7.8053 47.2419 8.3293C47.1711 9.40589 47.1016 10.4829 47.0337 11.5599C46.9868 12.3041 46.9458 13.0483 46.8976 13.7925C46.8323 14.8055 46.7619 15.8185 46.6953 16.8315C46.6484 17.5398 46.6053 18.2486 46.5579 18.9569C46.4901 19.9768 46.4201 20.9966 46.3523 22.0169C46.3066 22.7039 46.2635 23.3913 46.2174 24.0783C46.1491 25.0982 46.0787 26.118 46.01 27.1378C45.9639 27.8248 45.9221 28.5123 45.8731 29.1993C45.8082 30.1056 45.7361 31.0111 45.6699 31.9174C45.6222 32.5758 45.5816 33.2347 45.5325 33.8931C45.4681 34.7636 45.3977 35.634 45.3311 36.5045C45.2842 37.1203 45.2407 37.7364 45.1925 38.3522C45.1263 39.2013 45.0576 40.0501 44.9893 40.8992C44.9292 41.6494 44.8694 42.3991 44.8088 43.1493C44.782 43.4817 44.7461 43.8136 44.7278 44.1465C44.7197 44.2924 44.6578 44.3394 44.5195 44.3522C43.8415 44.4153 43.1652 44.5062 42.4858 44.5506C41.3521 44.6248 40.2166 44.6739 39.082 44.7272C38.7551 44.7426 38.7564 44.7324 38.6749 44.4153C38.0988 42.1725 37.5633 39.9186 36.8038 37.7275C36.5874 37.1024 36.3344 36.493 36.0523 35.8939C35.4558 34.6274 34.4607 33.9191 33.0927 33.6814C31.6709 33.4348 30.2397 33.3678 28.8034 33.4348C27.8471 33.4792 26.8892 33.5491 25.9517 33.7672C24.8307 34.0279 24.0101 34.6782 23.4802 35.6959C22.8922 36.8241 22.5145 38.0322 22.1505 39.244C21.6334 40.9658 21.2084 42.7123 20.7556 44.4516C20.6967 44.6786 20.6007 44.7439 20.3767 44.7336C19.2912 44.6841 18.206 44.6334 17.1213 44.5706C16.3695 44.5271 15.6215 44.4563 14.8751 44.3573C14.7117 44.3355 14.6665 44.2681 14.6545 44.1136C14.579 43.1373 14.4902 42.1619 14.4126 41.1855C14.3469 40.3646 14.2927 39.5431 14.2287 38.7221C14.1502 37.7104 14.064 36.6991 13.9863 35.687C13.9347 35.0145 13.8946 34.3411 13.8451 33.6686C13.7802 32.7836 13.7098 31.8995 13.6454 31.0145C13.5959 30.3347 13.5532 29.6546 13.505 28.9748C13.4393 28.0471 13.3693 27.1199 13.3053 26.1927C13.2549 25.463 13.2122 24.7329 13.1636 24.0032C13.0983 23.026 13.0283 22.0489 12.9635 21.0713C12.9136 20.3203 12.8709 19.5688 12.8218 18.8178C12.7569 17.8334 12.6878 16.849 12.6225 15.8646C12.588 15.3474 12.5585 14.8298 12.5248 14.3126C12.4578 13.2855 12.3883 12.2584 12.3226 11.2314C12.2735 10.459 12.2312 9.68624 12.1817 8.9139C12.1169 7.90089 12.0478 6.88788 11.9812 5.87487C11.9517 5.42853 11.9261 4.98176 11.8941 4.53585C11.8839 4.39547 11.9471 4.35066 12.0781 4.33829C12.5939 4.28921 13.1077 4.21795 13.624 4.18168C14.2684 4.13517 14.9148 4.11597 15.5451 4.08653Z" fill="#5F5F5F"/>
</svg>
